The Host 2013 HDRiP x264 AC3-OFFLiNE

iMDB  http://www.imdb.com/title/tt1517260

Source  The.Host.2013.720p.KOR.HDRip.H-KTH  -  MANY THANKX

Media Info
The Host 2013 HDRiP x264 AC3-OFFLiNE.mp4
Format                                   : MPEG-4
Format profile                           : Base Media
Codec ID                                 : isom
File size                                : 1.50 GiB
Duration                                 : 2h 10mn
Overall bit rate mode                    : Variable
Overall bit rate                         : 1 644 Kbps
Encoded date                             : UTC 2013-04-19 11:56:26
Tagged date                              : UTC 2013-04-19 11:56:26

Video
ID                                       : 1
Format                                   : AVC
Format/Info                              : Advanced Video Codec
Format profile                           : High@L4.1
Format settings, CABAC                   : Yes
Format settings, ReFrames                : 3 frames
Codec ID                                 : avc1
Codec ID/Info                            : Advanced Video Coding
Duration                                 : 2h 10mn
Bit rate mode                            : Variable
Bit rate                                 : 1 513 Kbps
Maximum bit rate                         : 40.0 Mbps
Width                                    : 720 pixels
Height                                   : 304 pixels
Display aspect ratio                     : 2.35:1
Frame rate mode                          : Constant
Frame rate                               : 29.970 fps
Color space                              : YUV
Chroma subsampling                       : 4:2:0
Bit depth                                : 8 bits
Scan type                                : Progressive
Bits/(Pixel*Frame)                       : 0.231
Stream size                              : 1.38 GiB (92%)
Title                                    : The Host 2013 HDRiP x264 AC3-OFFLiNE
Writing library                          : x264 core 130 r2273 b3065e6

Audio
ID                                       : 2
Format                                   : AC-3
Format/Info                              : Audio Coding 3
Mode extension                           : CM (complete main)
Format settings, Endianness              : Big
Codec ID                                 : ac-3
Duration                                 : 2h 10mn
Bit rate mode                            : Constant
Bit rate                                 : 128 Kbps
Channel(s)                               : 2 channels
Channel positions                        : Front: L R
Sampling rate                            : 48.0 KHz
Bit depth                                : 16 bits
Compression mode                         : Lossy
Stream size                              : 120 MiB (8%)
Title                                    : 2.0
Language                                 : English

Screens 
http://i.imgur.com/Ve90Vd7.png 
http://i.imgur.com/ZjBGV70.png 
http://i.imgur.com/4iuFnTB.png 
http://i.imgur.com/i8IDN3i.png

